<?xml version="1.0" standalone="no"?>
<!DOCTYPE svg PUBLIC "-//W3C//DTD SVG 20010904//EN"
 "http://www.w3.org/TR/2001/REC-SVG-20010904/DTD/svg10.dtd">
<svg version="1.0" xmlns="http://www.w3.org/2000/svg"
 width="700.000000pt" height="700.000000pt" viewBox="0 0 700.000000 700.000000"
 preserveAspectRatio="xMidYMid meet">
<metadata>
Created by potrace 1.14, written by Peter Selinger 2001-2017
</metadata>
<g transform="translate(0.000000,700.000000) scale(0.100000,-0.100000)"
fill="#000000" stroke="none">
<path d="M4629 6996 c-2 -2 -34 -7 -71 -10 -37 -4 -80 -9 -95 -12 -512 -91
-918 -306 -1264 -669 -167 -176 -324 -415 -422 -645 -52 -122 -122 -361 -141
-480 -3 -19 -8 -51 -11 -70 -40 -249 -22 -570 46 -849 l21 -84 -1248 -1248
-1248 -1248 742 -743 743 -742 1248 1248 1248 1248 64 -15 c158 -40 231 -53
352 -63 102 -10 321 -10 407 -2 85 9 223 29 231 33 3 2 21 7 40 10 72 12 248
65 334 100 435 177 776 454 1029 835 158 237 282 541 325 795 6 33 13 76 16
95 18 105 22 184 19 360 -2 107 -6 210 -9 228 -2 18 -10 61 -16 95 -6 34 -12
71 -14 82 -16 103 -80 296 -162 495 -33 80 -80 193 -104 252 -23 59 -44 106
-45 105 -2 -1 -280 -278 -618 -616 l-616 -615 -272 272 -272 273 617 617 618
618 -128 52 c-70 28 -177 72 -238 98 -257 106 -372 139 -665 189 -38 7 -436
16 -441 11z m-245 -1127 l-459 -459 743 -742 742 -743 459 459 460 460 3 -40
c3 -38 -3 -127 -17 -231 -5 -43 -15 -89 -49 -223 -2 -9 -19 -54 -37 -100 -76
-198 -187 -367 -345 -527 -61 -62 -116 -113 -122 -113 -6 0 -12 -3 -14 -8 -6
-13 -82 -68 -158 -113 -163 -96 -300 -149 -495 -191 -79 -16 -137 -21 -275
-22 -96 -1 -193 2 -215 6 -22 4 -58 10 -80 13 -98 15 -235 59 -395 127 l-115
48 -1166 -1166 -1167 -1167 -272 273 -272 272 1163 1164 c694 694 1163 1170
1161 1179 -2 9 -23 63 -48 122 -51 122 -97 263 -112 343 -23 119 -27 161 -26
325 0 134 5 192 22 275 65 313 201 569 422 790 127 128 245 214 397 289 197
98 367 144 578 157 55 4 101 8 103 9 2 2 12 0 24 -3 16 -4 -60 -85 -438 -463z"/>
</g>
</svg>
